<svg width="32" height="32" viewBox="0 0 32 32" fill="none" xmlns="http://www.w3.org/2000/svg">
<g id="icon/editor/format_list_bulleted_24px">
<path id="icon/editor/format_list_bulleted_24px_2" fill-rule="evenodd" clip-rule="evenodd" d="M3.66675 8C3.66675 6.89333 4.56008 6 5.66675 6C6.77341 6 7.66675 6.89333 7.66675 8C7.66675 9.10667 6.77341 10 5.66675 10C4.56008 10 3.66675 9.10667 3.66675 8ZM3.66675 16C3.66675 14.8933 4.56008 14 5.66675 14C6.77341 14 7.66675 14.8933 7.66675 16C7.66675 17.1067 6.77341 18 5.66675 18C4.56008 18 3.66675 17.1067 3.66675 16ZM5.66675 22C4.56008 22 3.66675 22.9067 3.66675 24C3.66675 25.0933 4.57341 26 5.66675 26C6.76008 26 7.66675 25.0933 7.66675 24C7.66675 22.9067 6.77341 22 5.66675 22ZM28.3334 25.3333H9.66675V22.6667H28.3334V25.3333ZM9.66675 17.3333H28.3334V14.6667H9.66675V17.3333ZM9.66675 9.33333V6.66667H28.3334V9.33333H9.66675Z" fill="black"/>
</g>
</svg>
