<svg width="32" height="32" viewBox="0 0 32 32" fill="none" xmlns="http://www.w3.org/2000/svg">
<g id="icon/editor/insert_link_24px">
<path id="icon/editor/insert_link_24px_2" fill-rule="evenodd" clip-rule="evenodd" d="M5.20008 15.9997C5.20008 13.7197 7.05341 11.8663 9.33342 11.8663H14.6667V9.33301H9.33342C5.65341 9.33301 2.66675 12.3197 2.66675 15.9997C2.66675 19.6797 5.65341 22.6663 9.33342 22.6663H14.6667V20.133H9.33342C7.05341 20.133 5.20008 18.2797 5.20008 15.9997ZM10.6667 17.333H21.3334V14.6663H10.6667V17.333ZM17.3334 9.33301H22.6667C26.3467 9.33301 29.3334 12.3197 29.3334 15.9997C29.3334 19.6797 26.3467 22.6663 22.6667 22.6663H17.3334V20.133H22.6667C24.9467 20.133 26.8001 18.2797 26.8001 15.9997C26.8001 13.7197 24.9467 11.8663 22.6667 11.8663H17.3334V9.33301Z" fill="black"/>
</g>
</svg>
