<svg width="32" height="32" viewBox="0 0 32 32" fill="none" xmlns="http://www.w3.org/2000/svg">
<g id="icon/editor/insert_link_24px">
<path id="icon/editor/insert_link_24px_2" fill-rule="evenodd" clip-rule="evenodd" d="M5.20008 15.9999C5.20008 13.7199 7.05341 11.8666 9.33342 11.8666H14.6667V9.33325H9.33342C5.65341 9.33325 2.66675 12.3199 2.66675 15.9999C2.66675 19.6799 5.65341 22.6666 9.33342 22.6666H14.6667V20.1333H9.33342C7.05341 20.1333 5.20008 18.2799 5.20008 15.9999ZM10.6667 17.3333H21.3334V14.6666H10.6667V17.3333ZM17.3334 9.33325H22.6667C26.3467 9.33325 29.3334 12.3199 29.3334 15.9999C29.3334 19.6799 26.3467 22.6666 22.6667 22.6666H17.3334V20.1333H22.6667C24.9467 20.1333 26.8001 18.2799 26.8001 15.9999C26.8001 13.7199 24.9467 11.8666 22.6667 11.8666H17.3334V9.33325Z" fill="black"/>
</g>
</svg>
