<svg width="32" height="32" viewBox="0 0 32 32" fill="none" xmlns="http://www.w3.org/2000/svg">
<g id="icon/editor/format_bold_24px">
<path id="icon/editor/format_bold_24px_2" fill-rule="evenodd" clip-rule="evenodd" d="M20.2999 15.7201C21.5933 14.8267 22.4999 13.3601 22.4999 12.0001C22.4999 8.98675 20.1666 6.66675 17.1666 6.66675H8.83325V25.3334H18.2199C21.0066 25.3334 23.1666 23.0667 23.1666 20.2801C23.1666 18.2534 22.0199 16.5201 20.2999 15.7201ZM12.8333 10.0001H16.8333C17.9399 10.0001 18.8333 10.8934 18.8333 12.0001C18.8333 13.1067 17.9399 14.0001 16.8333 14.0001H12.8333V10.0001ZM12.8333 22.0001H17.4999C18.6066 22.0001 19.4999 21.1067 19.4999 20.0001C19.4999 18.8934 18.6066 18.0001 17.4999 18.0001H12.8333V22.0001Z" fill="black"/>
</g>
</svg>
