<svg width="32" height="32" viewBox="0 0 32 32" fill="none" xmlns="http://www.w3.org/2000/svg">
<g id="icon/editor/format_bold_24px">
<path id="icon/editor/format_bold_24px_2" fill-rule="evenodd" clip-rule="evenodd" d="M20.2999 15.7198C21.5933 14.8265 22.4999 13.3598 22.4999 11.9998C22.4999 8.9865 20.1666 6.6665 17.1666 6.6665H8.83325V25.3332H18.2199C21.0066 25.3332 23.1666 23.0665 23.1666 20.2798C23.1666 18.2532 22.0199 16.5198 20.2999 15.7198ZM12.8333 9.99984H16.8333C17.9399 9.99984 18.8333 10.8932 18.8333 11.9998C18.8333 13.1065 17.9399 13.9998 16.8333 13.9998H12.8333V9.99984ZM12.8333 21.9998H17.4999C18.6066 21.9998 19.4999 21.1065 19.4999 19.9998C19.4999 18.8932 18.6066 17.9998 17.4999 17.9998H12.8333V21.9998Z" fill="black"/>
</g>
</svg>
