<svg width="32" height="32" viewBox="0 0 32 32" fill="none" xmlns="http://www.w3.org/2000/svg">
<g id="icon/editor/format_bold_24px">
<path id="icon/editor/format_bold_24px_2" fill-rule="evenodd" clip-rule="evenodd" d="M20.2999 15.7203C21.5933 14.827 22.4999 13.3603 22.4999 12.0003C22.4999 8.98699 20.1666 6.66699 17.1666 6.66699H8.83325V25.3337H18.2199C21.0066 25.3337 23.1666 23.067 23.1666 20.2803C23.1666 18.2537 22.0199 16.5203 20.2999 15.7203ZM12.8333 10.0003H16.8333C17.9399 10.0003 18.8333 10.8937 18.8333 12.0003C18.8333 13.107 17.9399 14.0003 16.8333 14.0003H12.8333V10.0003ZM12.8333 22.0003H17.4999C18.6066 22.0003 19.4999 21.107 19.4999 20.0003C19.4999 18.8937 18.6066 18.0003 17.4999 18.0003H12.8333V22.0003Z" fill="black"/>
</g>
</svg>
