<svg width="32" height="32" viewBox="0 0 32 32" fill="none" xmlns="http://www.w3.org/2000/svg">
<g id="icon/editor/insert_link_24px">
<path id="icon/editor/insert_link_24px_2" fill-rule="evenodd" clip-rule="evenodd" d="M5.20008 16.0002C5.20008 13.7202 7.05341 11.8668 9.33342 11.8668H14.6667V9.3335H9.33342C5.65341 9.3335 2.66675 12.3202 2.66675 16.0002C2.66675 19.6802 5.65341 22.6668 9.33342 22.6668H14.6667V20.1335H9.33342C7.05341 20.1335 5.20008 18.2802 5.20008 16.0002ZM10.6667 17.3335H21.3334V14.6668H10.6667V17.3335ZM17.3334 9.3335H22.6667C26.3467 9.3335 29.3334 12.3202 29.3334 16.0002C29.3334 19.6802 26.3467 22.6668 22.6667 22.6668H17.3334V20.1335H22.6667C24.9467 20.1335 26.8001 18.2802 26.8001 16.0002C26.8001 13.7202 24.9467 11.8668 22.6667 11.8668H17.3334V9.3335Z" fill="black"/>
</g>
</svg>
